<?xml version="1.0" encoding="utf-8"?>
<!-- Generator: Adobe Illustrator 16.0.0, SVG Export Plug-In . SVG Version: 6.00 Build 0)  -->
<!DOCTYPE svg PUBLIC "-//W3C//DTD SVG 1.1//EN" "http://www.w3.org/Graphics/SVG/1.1/DTD/svg11.dtd">
<svg version="1.1" id="Layer_1" xmlns="http://www.w3.org/2000/svg" xmlns:xlink="http://www.w3.org/1999/xlink" x="0px" y="0px"
	 width="54.328px" height="67.309px" viewBox="0 0 54.328 67.309" enable-background="new 0 0 54.328 67.309" xml:space="preserve">
<path fill="#191718" d="M54.328,67.309H0V0h54.328V67.309z M1.311,65.997h51.706V1.311H1.311V65.997z M5.029,34.958h3.233
	c1.88,0,3.158,0.826,3.158,2.894v7.894c0,1.541-1.165,2.218-2.368,2.293v0.076c1.428,0.075,2.556,0.563,2.556,2.518v8.571
	c0,2.03-1.241,2.895-2.932,2.895H5.029V34.958z M8.149,47.588c1.391,0,1.767-0.977,1.767-1.917v-7.894
	c0-1.203-0.376-1.692-1.842-1.692H6.533v11.503H8.149z M6.533,48.716v12.255h1.541c1.504,0,2.03-0.526,2.03-1.654v-8.646
	c0-1.353-0.639-1.955-1.955-1.955H6.533z M15.028,34.957h3.384c1.804,0,3.082,0.827,3.082,2.519v8.007
	c0,1.466-0.413,2.519-2.331,2.669v0.075c1.354,0.113,2.331,0.789,2.331,2.444v11.427H19.99V50.671c0-1.015-0.564-1.955-2.067-1.955
	h-1.391v13.382h-1.504V34.957z M17.999,47.588c1.278,0,1.992-0.601,1.992-1.804v-8.007c0-1.166-0.639-1.692-1.842-1.692h-1.616
	v11.503H17.999z M25.028,62.098h5.413V60.97h-3.909V48.715h3.42v-1.127h-3.42V36.085h3.646v-1.128h-5.15V62.098z M38.373,54.167
	h-3.721l-0.828,7.932h-1.353l3.045-27.142h2.104l3.121,27.142h-1.504L38.373,54.167z M38.261,53.039l-0.94-8.909
	c-0.301-2.707-0.676-5.451-0.752-8.195h-0.074c-0.301,2.706-0.414,5.488-0.715,8.195l-0.977,8.909H38.261z M42.81,34.958h3.194
	c2.219,0,3.385,0.864,3.385,2.894v21.352c0,2.03-1.166,2.895-3.385,2.895H42.81V34.958z M45.854,60.971
	c1.353,0,2.03-0.489,2.03-1.654V37.739c0-1.165-0.678-1.654-2.03-1.654h-1.541v24.886H45.854z M26.983,32.427h1.504V6.414h2.669
	V5.286h-6.842v1.128h2.669V32.427z M33.225,32.427h1.504V19.044H38.3v13.383h1.505V5.287H38.3v12.631h-3.571V5.287h-1.504V32.427z
	 M42.916,32.427h5.876v-1.128H44.42V19.044h3.883v-1.127H44.42V6.415h4.109V5.287h-5.613V32.427z"/>
</svg>
