<?xml version="1.0" encoding="utf-8"?>
<!-- Generator: Adobe Illustrator 16.0.0, SVG Export Plug-In . SVG Version: 6.00 Build 0)  -->
<!DOCTYPE svg PUBLIC "-//W3C//DTD SVG 1.1//EN" "http://www.w3.org/Graphics/SVG/1.1/DTD/svg11.dtd">
<svg version="1.1" id="Layer_1" xmlns="http://www.w3.org/2000/svg" xmlns:xlink="http://www.w3.org/1999/xlink" x="0px" y="0px"
	 width="36.392px" height="67.106px" viewBox="0 0 36.392 67.106" enable-background="new 0 0 36.392 67.106" xml:space="preserve">
<path fill="#191718" d="M5.721,5.271h3.224c1.874,0,3.147,0.824,3.147,2.886v7.87c0,1.537-1.162,2.211-2.36,2.286v0.075
	c1.424,0.075,2.549,0.562,2.549,2.511v8.545c0,2.024-1.237,2.886-2.924,2.886H5.721V5.271z M8.832,17.864
	c1.386,0,1.761-0.975,1.761-1.912v-7.87c0-1.199-0.375-1.687-1.836-1.687H7.22v11.469H8.832z M7.22,18.988v12.218h1.537
	c1.499,0,2.023-0.525,2.023-1.649v-8.62c0-1.349-0.637-1.949-1.948-1.949H7.22z M20.157,24.883h-3.71l-0.824,7.447h-1.35
	l3.036-27.06h2.099l3.111,27.06h-1.5L20.157,24.883z M20.045,23.759l-0.937-9.344c-0.301-2.698-0.676-5.434-0.75-8.17h-0.074
	c-0.3,2.698-0.413,5.472-0.713,8.17l-0.975,9.344H20.045z M24.618,5.271h1.499V32.33h-1.499V5.271z M26.117,18.014l4.018-12.743
	h1.349l-4.018,12.743l4.393,14.316H30.36L26.117,18.014z M5.833,62.475h6.166v-1.124H7.332V49.132h3.872v-1.124H7.332V36.54h4.405
	v-1.124H5.833V62.475z M15.042,35.416h3.527c1.799,0,3.073,0.825,3.073,2.511v7.983c0,1.462-0.412,2.511-2.323,2.661v0.075
	c1.349,0.112,2.323,0.787,2.323,2.436v11.393h-1.499V51.082c0-1.012-0.562-1.949-2.062-1.949h-1.54v13.342h-1.5V35.416z
	 M18.157,48.008c1.273,0,1.986-0.6,1.986-1.799v-7.983c0-1.162-0.638-1.686-1.836-1.686h-1.766v11.468H18.157z M28.164,50.069
	h-0.075l-2.17-14.654H24.42l2.957,16.378v10.681h1.499V51.793l2.957-16.378h-1.499L28.164,50.069z M36.392,67.106H0V0h36.392V67.106
	z M1.309,65.798h33.774V1.308H1.309V65.798z"/>
</svg>
